<!-- Save this as google.svg -->
<svg xmlns="http://www.w3.org/2000/svg" viewBox="0 0 533.5 544.3" width="48" height="48">
  <path fill="#4285F4" d="M533.5 278.4c0-17.8-1.6-35.2-4.7-52H272v98.6h146.9c-6.3 33.9-25.4 62.7-54.1 82v68.2h87.4c51.2-47.2 81.3-116.5 81.3-196.8z"></path>
  <path fill="#34A853" d="M272 544.3c73.7 0 135.7-24.4 180.9-66.2l-87.4-68.2c-24.3 16.3-55.4 25.8-93.5 25.8-71.8 0-132.7-48.4-154.5-113.3H27.6v71.4C72.3 492.5 167 544.3 272 544.3z"></path>
  <path fill="#FBBC04" d="M117.5 322.5c-5.6-16.3-8.8-33.8-8.8-51.5s3.2-35.2 8.8-51.5V147.9H27.6C-4.5 204.6-4.5 284.7 27.6 341.4l89.9-18.9z"></path>
  <path fill="#EA4335" d="M272 107.7c39.6 0 75.3 13.6 103.4 40.4l77.5-77.5C407.1 24.1 343.5 0 272 0 167 0 72.3 51.8 27.6 147.9l89.9 71.4C139.3 156.1 200.2 107.7 272 107.7z"></path>
</svg>
